<?xml version="1.0" standalone="no"?>
<!DOCTYPE svg PUBLIC "-//W3C//DTD SVG 20010904//EN"
 "http://www.w3.org/TR/2001/REC-SVG-20010904/DTD/svg10.dtd">
<svg version="1.0" xmlns="http://www.w3.org/2000/svg"
 width="906.000000pt" height="906.000000pt" viewBox="0 0 906.000000 906.000000"
 preserveAspectRatio="xMidYMid meet">
<metadata>
Created by potrace 1.14, written by Peter Selinger 2001-2017
</metadata>
<g transform="translate(0.000000,906.000000) scale(0.100000,-0.100000)"
fill="#000000" stroke="none">
<path d="M4308 8235 c-2 -1 -46 -6 -98 -9 -113 -8 -219 -19 -278 -31 -10 -1
-39 -6 -67 -9 -39 -6 -148 -27 -250 -51 -337 -76 -745 -243 -1070 -438 -150
-90 -437 -293 -475 -336 -3 -3 -32 -28 -65 -55 -117 -97 -355 -343 -484 -501
-287 -352 -542 -820 -665 -1217 l-23 -75 128 93 c549 401 1175 712 1974 979
186 62 486 148 555 159 19 3 51 10 70 16 19 5 55 13 80 16 25 3 47 8 50 9 6 4
179 33 235 39 55 7 133 16 175 21 70 9 288 18 405 18 120 0 378 -11 412 -17
10 -2 54 -7 98 -10 44 -4 87 -9 95 -11 8 -2 35 -6 60 -9 79 -9 228 -35 401
-71 556 -115 1291 -403 1939 -761 180 -100 439 -266 600 -387 63 -47 116 -82
118 -77 6 16 -79 257 -138 391 -94 212 -172 360 -282 536 -368 587 -919 1082
-1548 1390 -354 174 -842 324 -1165 358 -33 4 -67 8 -75 10 -8 2 -46 7 -85 10
-38 4 -83 9 -100 12 -32 5 -521 13 -527 8z"/>
<path d="M4298 6555 c-2 -1 -48 -5 -103 -9 -55 -3 -111 -8 -125 -10 -14 -2
-50 -7 -80 -10 -49 -6 -180 -27 -250 -41 -57 -11 -137 -27 -160 -31 -14 -2
-36 -7 -50 -10 -14 -3 -36 -8 -50 -10 -63 -12 -344 -79 -477 -115 -560 -151
-1089 -362 -1518 -607 -143 -81 -151 -87 -255 -152 -39 -25 -79 -49 -88 -55
-67 -39 -355 -253 -492 -364 -179 -146 -261 -221 -457 -416 -157 -155 -183
-186 -183 -212 0 -40 9 -50 351 -354 369 -329 582 -492 974 -744 17 -11 39
-25 50 -31 11 -6 58 -33 105 -61 261 -152 526 -281 795 -388 66 -26 129 -51
140 -56 69 -31 443 -153 500 -163 14 -3 28 -7 33 -10 5 -3 20 -7 35 -10 14 -2
59 -13 99 -24 69 -19 324 -77 378 -86 14 -2 52 -9 85 -15 33 -6 72 -13 88 -16
15 -3 39 -7 55 -10 15 -3 50 -8 77 -11 28 -4 52 -8 55 -9 3 -2 32 -7 65 -10
32 -4 66 -9 74 -10 9 -2 45 -6 81 -10 36 -3 79 -8 95 -10 201 -25 550 -25 760
0 17 2 59 6 95 10 93 9 216 24 255 31 11 2 40 7 65 10 25 3 52 7 60 9 8 2 30
7 48 10 171 28 329 62 567 121 279 69 397 106 650 200 239 88 580 243 755 341
329 185 442 256 685 429 318 227 546 418 822 689 157 155 166 172 121 231 -23
30 -229 236 -314 314 -528 483 -1111 858 -1729 1110 -55 22 -109 45 -120 50
-28 13 -316 114 -455 160 -410 134 -810 238 -1145 294 -16 3 -43 7 -60 10 -31
6 -227 30 -330 41 -60 7 -571 16 -577 10z m362 -290 c95 -7 127 -11 225 -30
479 -94 848 -310 1127 -660 193 -243 323 -561 364 -890 13 -109 7 -365 -11
-449 -2 -12 -6 -34 -9 -51 -7 -50 -45 -191 -72 -267 -54 -152 -179 -377 -269
-487 -195 -237 -374 -381 -618 -496 -98 -46 -263 -108 -322 -119 -11 -3 -51
-11 -90 -20 -38 -8 -88 -17 -110 -20 -23 -4 -52 -8 -65 -11 -123 -24 -447 -23
-565 0 -11 2 -42 7 -70 10 -83 10 -284 63 -380 101 -359 143 -677 409 -868
729 -37 63 -125 253 -150 325 -30 86 -65 227 -72 285 -3 22 -9 74 -14 115 -8
75 -7 383 3 430 2 14 7 43 11 65 37 252 162 532 329 740 84 105 253 264 356
335 19 13 37 27 40 31 14 18 243 146 328 184 193 84 400 138 578 151 49 3 90
7 91 8 3 3 158 -3 233 -9z"/>
<path d="M4419 5766 c-2 -2 -33 -7 -68 -10 -36 -4 -67 -9 -70 -10 -3 -2 -22
-7 -42 -10 -53 -8 -190 -53 -262 -85 -450 -202 -750 -662 -750 -1151 0 -78 10
-207 17 -219 3 -3 7 -26 11 -50 8 -55 59 -199 97 -276 117 -235 340 -456 578
-575 365 -183 810 -189 1176 -16 138 66 256 149 363 256 181 181 310 436 352
695 15 92 15 315 0 390 -46 239 -138 425 -307 625 -33 38 -62 69 -66 69 -3 1
0 -24 8 -55 53 -201 -4 -411 -151 -560 -289 -293 -799 -181 -943 208 -28 74
-33 99 -36 183 -7 151 51 305 150 407 65 67 124 103 213 133 l65 22 -69 13
c-67 12 -258 24 -266 16z"/>
<path d="M830 3483 c1 -38 108 -300 195 -478 143 -297 349 -612 545 -835 30
-35 63 -72 73 -84 34 -38 154 -160 224 -226 295 -279 681 -537 1043 -698 230
-103 582 -218 750 -247 19 -3 51 -10 70 -15 19 -5 51 -11 70 -14 19 -3 44 -7
55 -10 11 -2 43 -7 70 -10 28 -4 64 -9 80 -11 138 -21 307 -30 535 -29 244 0
446 15 620 44 30 5 75 12 100 15 24 4 47 8 50 10 3 2 23 6 45 9 22 4 56 11 75
16 19 5 47 11 62 14 15 2 62 14 105 26 1134 308 2021 1081 2508 2185 63 142
128 315 121 322 -2 2 -71 -40 -152 -93 -197 -127 -196 -127 -216 -139 -162
-98 -341 -196 -528 -291 -156 -78 -398 -194 -406 -194 -2 0 -27 -11 -56 -24
-29 -14 -82 -37 -118 -52 -36 -14 -76 -31 -90 -37 -14 -5 -29 -11 -35 -13 -5
-1 -55 -20 -110 -42 -112 -45 -325 -117 -460 -157 -49 -15 -101 -30 -115 -35
-38 -13 -252 -66 -380 -94 -131 -29 -140 -31 -270 -52 -132 -21 -138 -22 -200
-29 -30 -4 -68 -9 -84 -11 -101 -13 -254 -18 -491 -18 -242 0 -320 3 -475 20
-91 10 -275 36 -340 49 -14 2 -63 12 -110 21 -47 9 -107 22 -135 30 -27 7 -61
15 -75 18 -54 9 -355 98 -496 147 -416 143 -1031 413 -1409 619 -171 93 -458
272 -582 362 -53 39 -63 44 -63 31z"/>
</g>
</svg>
