<?xml version="1.0" encoding="UTF-8"?>
<svg id="uuid-5878a296-bc92-406c-aa38-2064b93f4a0f" data-name="Layer 2" xmlns="http://www.w3.org/2000/svg" viewBox="0 0 904.13 741.33">
  <defs>
    <style>
      .uuid-fb37b307-ade9-4d38-b9c9-b5d9aca72ead {
        stroke-width: 0px;
      }

      .uuid-e25e4b37-3d2a-4875-9acd-b52296bc5e4f {
        fill: #020202;
        stroke: #020202;
      }

      .uuid-e25e4b37-3d2a-4875-9acd-b52296bc5e4f, .uuid-af57197e-7536-4bcd-90ae-8099dbea7861 {
        stroke-miterlimit: 10;
        stroke-width: 10px;
      }

      .uuid-af57197e-7536-4bcd-90ae-8099dbea7861 {
        stroke: #000;
      }
    </style>
  </defs>
  <g id="uuid-d02903d4-e2ff-4c58-b166-d97c95e2548a" data-name="Layer 1">
    <g>
      <path class="uuid-fb37b307-ade9-4d38-b9c9-b5d9aca72ead" d="m897.9,362.81c-63.5-65.86-137.42-115.75-223.71-147.14-47.33-17.2-95.33-31.72-144.87-40.61-49.87-8.95-99.92-9.9-150.01-.92-62.72,11.24-123.91,27.71-182.28,53.6C124,260.15,60.59,306.3,5.5,364.02c-7.43,7.81-7.76,9.96,1.61,18.34,24.01,21.47,47.66,43.48,73.07,63.17,50.53,39.13,106.09,69.67,166.13,91.85,46.92,17.35,95.49,27.98,144.87,35.01,20.09,2.85,40.43,4.04,51.26,5.09,60.34-.92,109.97-9.92,159.07-22.2,99.17-24.82,185.48-73.77,262.03-140.73,11.88-10.38,23.15-21.45,34.37-32.52,8.38-8.29,8.18-10.71-.02-19.22Zm-824.12,11.71c13.89-23.72,82.66-86.14,102.26-92.82-23.77,60.23-28.2,116.17.73,186.05-24.18-9.08-87-65.96-103-93.22Zm173.78,127.26c-13.36-5.11-21.63-14.42-28.04-27.09-13.23-26.21-22.67-53.49-25.18-82.72-4.15-48.64,8.64-93.22,34.33-134.38.95-1.5,2.05-3.29,3.53-4.04,13.78-6.92,27.67-13.65,41.51-20.42-30.65,42.27-48.06,88.56-47.84,140.57.22,51.85,16.73,98.38,48.2,140.22-8.82-4.1-17.44-8.69-26.52-12.13Zm347.42-14.27c-37.41,43.46-86.49,60.81-147.05,62.11-7.56-.77-19.66-1.5-31.61-3.33-78.64-11.99-140.04-74.65-148.16-153.69-7.25-70.46,19.95-126.7,78.77-165.4,51.04-33.58,107.35-38.87,165.7-20.94,122.03,37.48,165.27,184.93,82.35,281.25Zm81.4,1.87c-1.02,1.7-2.42,3.57-4.1,4.41-14.18,7.08-28.46,13.93-44,21.49,67.53-94.93,67.75-188.44.51-283.11,12.19,5.87,23.28,11.55,34.66,16.6,7.41,3.29,12.3,8.33,16.4,15.41,43.89,75.84,41.05,150.82-3.48,225.21Zm51.13-20.73c26.81-63.41,27.21-125.56.22-188.52,42.09,24.49,73.26,58.6,103.47,93.54-16.84,29.3-67.33,75.69-103.69,94.98Z"/>
      <g>
        <path class="uuid-fb37b307-ade9-4d38-b9c9-b5d9aca72ead" d="m455.76.06C272.48-3.02,128.41,121.87,82.37,272.33c67.53-52.14,144.26-86.84,225.41-112.35,52.45-16.51,106.35-24.91,161.5-22.4,49.1,2.23,97.01,11.55,143.62,27.05,61.84,20.59,120.49,48.06,175.23,83.54,11.79,7.65,22.86,16.4,34.37,24.72C778.07,124.3,640.93,3.15,455.76.06ZM176.41,175.87c40.96-47.07,90.59-77.36,147.49-95.9,66.94-21.83,135.3-24.93,204.49-12.74,77.27,13.6,144.52,46.06,197.85,104.85,1.19,1.32,2.25,2.8,3.37,4.19-158.1-89.8-357.43-111.1-553.2-.4Z"/>
        <path class="uuid-fb37b307-ade9-4d38-b9c9-b5d9aca72ead" d="m729.61,176.27c-158.1-89.8-357.43-111.1-553.2-.4,40.96-47.07,90.59-77.36,147.49-95.9,66.94-21.83,135.3-24.93,204.49-12.74,77.27,13.6,144.52,46.06,197.85,104.85,1.19,1.32,2.25,2.8,3.37,4.19Z"/>
        <path class="uuid-fb37b307-ade9-4d38-b9c9-b5d9aca72ead" d="m768.52,510.06c-72.53,40.74-148.69,72.27-230.85,87.72-51.21,9.61-102.63,10.52-154.22,2.91-71.1-10.5-136.74-37.24-201.11-67.68-34.77-16.43-68.08-35.52-99.3-58.09-.27-.2-.79-.07-1.19-.11,50.99,153.34,193.6,269.04,375.2,266.48,181.07-2.58,312.92-113.19,365.34-264.98-17.75,11.16-35.32,23.32-53.88,33.75Zm-147.89,136.85c-46.69,21.74-95.95,31.92-147.14,34.39-63.52,3.04-124.79-6.24-183.21-32.14-41.58-18.43-77.23-44.95-107.46-79.26,180.24,95.95,360.42,96.28,540.81.59-29.61,32.17-63.49,58.05-103,76.42Z"/>
        <path class="uuid-fb37b307-ade9-4d38-b9c9-b5d9aca72ead" d="m723.63,570.49c-29.61,32.17-63.49,58.05-103,76.42-46.69,21.74-95.95,31.92-147.14,34.39-63.52,3.04-124.79-6.24-183.21-32.14-41.58-18.43-77.23-44.95-107.46-79.26,180.24,95.95,360.42,96.28,540.81.59Z"/>
      </g>
      <path class="uuid-af57197e-7536-4bcd-90ae-8099dbea7861" d="m676.39,489.38c-1.02,1.7-2.42,3.57-4.1,4.41-14.18,7.08-28.46,13.93-44,21.49,67.53-94.93,67.75-188.44.51-283.11,12.19,5.87,23.28,11.55,34.66,16.6,7.41,3.29,12.3,8.33,16.4,15.41,43.89,75.84,41.05,150.82-3.48,225.21Z"/>
      <path class="uuid-af57197e-7536-4bcd-90ae-8099dbea7861" d="m274.09,513.92c-8.82-4.1-17.44-8.69-26.52-12.13-13.36-5.11-21.63-14.42-28.04-27.09-13.23-26.21-22.67-53.49-25.18-82.72-4.15-48.64,8.64-93.22,34.33-134.38.95-1.5,2.05-3.29,3.53-4.04,13.78-6.92,27.67-13.65,41.51-20.42-30.65,42.27-48.06,88.56-47.84,140.57.22,51.85,16.73,98.38,48.2,140.22Z"/>
      <path class="uuid-af57197e-7536-4bcd-90ae-8099dbea7861" d="m727.74,280.13c26.99,62.95,26.59,125.1-.22,188.52,36.36-19.29,86.86-65.68,103.69-94.98-30.21-34.94-61.38-69.05-103.47-93.54Zm32.79,136.4c-.6-.38-1.19-.77-1.79-1.15,4.28-26.65,4.68-53.29-.18-79.96.55-.29,1.12-.59,1.67-.88,13.69,13.18,27.38,26.37,41.3,39.79-14.22,14.62-27.6,28.42-40.99,42.2Z"/>
      <path class="uuid-af57197e-7536-4bcd-90ae-8099dbea7861" d="m176.05,281.7c-19.6,6.68-88.37,69.1-102.26,92.82,15.99,27.27,78.82,84.15,103,93.22-28.93-69.87-24.5-125.82-.73-186.05Zm-30.2,132.9c-.51.38-1.02.75-1.54,1.12-13.21-13.38-26.41-26.76-40.81-41.34,14.22-13.69,27.73-26.7,41.23-39.71.53.42,1.04.84,1.57,1.26-4.47,26.21-4.72,52.43-.46,78.68Z"/>
      <path class="uuid-e25e4b37-3d2a-4875-9acd-b52296bc5e4f" d="m176.41,175.88c195.75-110.71,395.1-89.42,553.2.4-1.12-1.4-2.17-2.87-3.38-4.2-53.32-58.79-120.58-91.24-197.85-104.85-69.19-12.19-137.54-9.09-204.49,12.73-56.88,18.54-106.52,48.83-147.48,95.91Z"/>
      <path class="uuid-e25e4b37-3d2a-4875-9acd-b52296bc5e4f" d="m182.82,569.9c30.23,34.32,65.88,60.84,107.46,79.27,58.41,25.89,119.68,35.17,183.21,32.12,51.19-2.46,100.46-12.64,147.15-34.37,39.5-18.39,73.37-44.25,102.99-76.43-180.38,95.7-360.55,95.37-540.8-.59Z"/>
      <path class="uuid-fb37b307-ade9-4d38-b9c9-b5d9aca72ead" d="m474.06,250.26c-16.71-4.5-33.33-3.88-50.08-.4-60.09,12.48-102.74,65.1-102.19,126.34.49,54.7,39.8,104.14,95.6,118.95,74.85,19.87,149.82-25.54,163-100.16,7.66-43.38-6.24-80.48-37.15-111.71,6.59,20.81,4.43,40.18-9.1,57.5-8.92,11.43-20.73,18.4-35.23,20.51-32.39,4.7-60.83-15.07-66.7-46.8-4.96-26.82,9.26-57.66,41.84-64.23Z"/>
      <path class="uuid-fb37b307-ade9-4d38-b9c9-b5d9aca72ead" d="m801.53,374.32c-14.22,14.62-27.6,28.42-40.99,42.2-.6-.38-1.19-.77-1.79-1.15,4.28-26.65,4.68-53.29-.18-79.96.55-.29,1.12-.59,1.67-.88,13.69,13.18,27.38,26.37,41.3,39.79Z"/>
      <path class="uuid-fb37b307-ade9-4d38-b9c9-b5d9aca72ead" d="m145.85,414.6c-.51.38-1.02.75-1.54,1.12-13.21-13.38-26.41-26.76-40.81-41.34,14.22-13.69,27.73-26.7,41.23-39.71.53.42,1.04.84,1.57,1.26-4.47,26.21-4.72,52.43-.46,78.68Z"/>
    </g>
  </g>
</svg>